/* XPM */
static char *_[] = {
/* columns rows colors chars-per-pixel */
"64 64 3 1 ",
"  c None",
". c black",
"X c white",
/* pixels */
"                                                                ",
"                                                                ",
"                                                                ",
"                                                                ",
"            XXXXXXXXXXXXXXXXXXXX                                ",
"            XXXXXXXXXXXXXXXXXXXX                                ",
"            XXXXXXXXXXXXXXXXXXXX                                ",
"            XXXXXXXXXXXXXXXXXXXX                                ",
"            XXXXXXXXXXXXXXXXXXXXXXXXXXXX                        ",
"            XXXXXXXXXXXXXXXXXXXXXXXXXXXX                        ",
"            XXXXXXXXXXXXXXXXXXXXXXXXXXXX                        ",
"            XXXXXXXXXXXXXXXXXXXXXXXXXXXX                        ",
"        XXXXXXXXXXXX....XXXXXXXXXXXXXXXXXXXX                    ",
"        XXXXXXXXXXXX....XXXXXXXXXXXXXXXXXXXX                    ",
"        XXXXXXXXXXXX....XXXXXXXXXXXXXXXXXXXX                    ",
"        XXXXXXXXXXXX....XXXXXXXXXXXXXXXXXXXX                    ",
"    XXXXXXXXXXXX........    ........XXXXXXXXXXXX                ",
"    XXXXXXXXXXXX........    ........XXXXXXXXXXXX                ",
"    XXXXXXXXXXXX........    ........XXXXXXXXXXXX                ",
"    XXXXXXXXXXXX........    ........XXXXXXXXXXXX                ",
"    XXXXXXXX........                    XXXXXXXX....            ",
"    XXXXXXXX........                    XXXXXXXX....            ",
"    XXXXXXXX........                    XXXXXXXX....            ",
"    XXXXXXXX........                    XXXXXXXX....            ",
"XXXXXXXXXXXX....                        XXXXXXXXXXXX            ",
"XXXXXXXXXXXX....                        XXXXXXXXXXXX            ",
"XXXXXXXXXXXX....                        XXXXXXXXXXXX            ",
"XXXXXXXXXXXX....                        XXXXXXXXXXXX            ",
"XXXXXXXX........                        XXXXXXXXXXXX....        ",
"XXXXXXXX........                        XXXXXXXXXXXX....        ",
"XXXXXXXX........                        XXXXXXXXXXXX....        ",
"XXXXXXXX........                        XXXXXXXXXXXX....        ",
"XXXXXXXX....                                XXXXXXXX....        ",
"XXXXXXXX....                                XXXXXXXX....        ",
"XXXXXXXX....                                XXXXXXXX....        ",
"XXXXXXXX....                                XXXXXXXX....        ",
"XXXXXXXX....                            XXXXXXXXXXXX....        ",
"XXXXXXXX....                            XXXXXXXXXXXX....        ",
"XXXXXXXX....                            XXXXXXXXXXXX....        ",
"XXXXXXXX....                            XXXXXXXXXXXX....        ",
"XXXXXXXX....                            XXXXXXXX........        ",
"XXXXXXXX....                            XXXXXXXX........        ",
"XXXXXXXX....                            XXXXXXXX........        ",
"XXXXXXXX....                            XXXXXXXX........        ",
"XXXXXXXXXXXXXXXX                    XXXXXXXXXXXX....            ",
"XXXXXXXXXXXXXXXX                    XXXXXXXXXXXX....            ",
"XXXXXXXXXXXXXXXX                    XXXXXXXXXXXX....            ",
"XXXXXXXXXXXXXXXX                    XXXXXXXXXXXX....            ",
"    XXXXXXXXXXXXXXXXXXXXXXXXXXXXXXXXXXXXXXXX........            ",
"    XXXXXXXXXXXXXXXXXXXXXXXXXXXXXXXXXXXXXXXX........            ",
"    XXXXXXXXXXXXXXXXXXXXXXXXXXXXXXXXXXXXXXXX........            ",
"    XXXXXXXXXXXXXXXXXXXXXXXXXXXXXXXXXXXXXXXX........            ",
"        ....XXXXXXXXXXXXXXXXXXXXXXXXXXXX........                ",
"        ....XXXXXXXXXXXXXXXXXXXXXXXXXXXX........                ",
"        ....XXXXXXXXXXXXXXXXXXXXXXXXXXXX........                ",
"        ....XXXXXXXXXXXXXXXXXXXXXXXXXXXX........                ",
"                ............................                    ",
"                ............................                    ",
"                ............................                    ",
"                ............................                    ",
"                                                                ",
"                                                                ",
"                                                                ",
"                                                                "
};
