/* XPM */
static char *_[] = {
/* columns rows colors chars-per-pixel */
"64 64 3 1 ",
"  c None",
". c black",
"X c white",
/* pixels */
"                        XXXXXXXX                                ",
"                        XXXXXXXX                                ",
"                        XXXXXXXX                                ",
"                        XXXXXXXX                                ",
"                        XXXXXXXX....                            ",
"                        XXXXXXXX....                            ",
"                        XXXXXXXX....                            ",
"                        XXXXXXXX....                            ",
"                    XXXXXXXXXXXX....                            ",
"                    XXXXXXXXXXXX....                            ",
"                    XXXXXXXXXXXX....                            ",
"                    XXXXXXXXXXXX....                            ",
"            XXXXXXXXXXXXXXXXXXXX....                            ",
"            XXXXXXXXXXXXXXXXXXXX....                            ",
"            XXXXXXXXXXXXXXXXXXXX....                            ",
"            XXXXXXXXXXXXXXXXXXXX....                            ",
"        XXXXXXXXXXXXXXXXXXXXXXXX....                            ",
"        XXXXXXXXXXXXXXXXXXXXXXXX....                            ",
"        XXXXXXXXXXXXXXXXXXXXXXXX....                            ",
"        XXXXXXXXXXXXXXXXXXXXXXXX....                            ",
"        XXXXXXXX........XXXXXXXX....                            ",
"        XXXXXXXX........XXXXXXXX....                            ",
"        XXXXXXXX........XXXXXXXX....                            ",
"        XXXXXXXX........XXXXXXXX....                            ",
"            ........    XXXXXXXX....                            ",
"            ........    XXXXXXXX....                            ",
"            ........    XXXXXXXX....                            ",
"            ........    XXXXXXXX....                            ",
"                        XXXXXXXX....                            ",
"                        XXXXXXXX....                            ",
"                        XXXXXXXX....                            ",
"                        XXXXXXXX....                            ",
"                        XXXXXXXX....                            ",
"                        XXXXXXXX....                            ",
"                        XXXXXXXX....                            ",
"                        XXXXXXXX....                            ",
"                        XXXXXXXX....                            ",
"                        XXXXXXXX....                            ",
"                        XXXXXXXX....                            ",
"                        XXXXXXXX....                            ",
"    XXXXXXXXXXXXXXXXXXXXXXXXXXXXXXXXXXXXXXXXXXXX                ",
"    XXXXXXXXXXXXXXXXXXXXXXXXXXXXXXXXXXXXXXXXXXXX                ",
"    XXXXXXXXXXXXXXXXXXXXXXXXXXXXXXXXXXXXXXXXXXXX                ",
"    XXXXXXXXXXXXXXXXXXXXXXXXXXXXXXXXXXXXXXXXXXXX                ",
"    XXXXXXXXXXXXXXXXXXXXXXXXXXXXXXXXXXXXXXXXXXXX....            ",
"    XXXXXXXXXXXXXXXXXXXXXXXXXXXXXXXXXXXXXXXXXXXX....            ",
"    XXXXXXXXXXXXXXXXXXXXXXXXXXXXXXXXXXXXXXXXXXXX....            ",
"    XXXXXXXXXXXXXXXXXXXXXXXXXXXXXXXXXXXXXXXXXXXX....            ",
"        ............................................            ",
"        ............................................            ",
"        ............................................            ",
"        ............................................            ",
"                                                                ",
"                                                                ",
"                                                                ",
"                                                                ",
"                                                                ",
"                                                                ",
"                                                                ",
"                                                                ",
"                                                                ",
"                                                                ",
"                                                                ",
"                                                                "
};
