/* XPM */
static char *_[] = {
/* columns rows colors chars-per-pixel */
"64 64 3 1 ",
"  c None",
". c black",
"X c white",
/* pixels */
"                                                                ",
"                                                                ",
"                                                                ",
"                                                                ",
"            XXXXXXXXXXXXXXXXXXXXXXXX                            ",
"            XXXXXXXXXXXXXXXXXXXXXXXX                            ",
"            XXXXXXXXXXXXXXXXXXXXXXXX                            ",
"            XXXXXXXXXXXXXXXXXXXXXXXX                            ",
"            XXXXXXXXXXXXXXXXXXXXXXXXXXXX                        ",
"            XXXXXXXXXXXXXXXXXXXXXXXXXXXX                        ",
"            XXXXXXXXXXXXXXXXXXXXXXXXXXXX                        ",
"            XXXXXXXXXXXXXXXXXXXXXXXXXXXX                        ",
"        XXXXXXXXXXXX........XXXXXXXXXXXX....                    ",
"        XXXXXXXXXXXX........XXXXXXXXXXXX....                    ",
"        XXXXXXXXXXXX........XXXXXXXXXXXX....                    ",
"        XXXXXXXXXXXX........XXXXXXXXXXXX....                    ",
"        XXXXXXXXXXXX....        XXXXXXXX....                    ",
"        XXXXXXXXXXXX....        XXXXXXXX....                    ",
"        XXXXXXXXXXXX....        XXXXXXXX....                    ",
"        XXXXXXXXXXXX....        XXXXXXXX....                    ",
"        XXXXXXXX........        XXXXXXXX....                    ",
"        XXXXXXXX........        XXXXXXXX....                    ",
"        XXXXXXXX........        XXXXXXXX....                    ",
"        XXXXXXXX........        XXXXXXXX....                    ",
"        XXXXXXXX....            XXXXXXXX....                    ",
"        XXXXXXXX....            XXXXXXXX....                    ",
"        XXXXXXXX....            XXXXXXXX....                    ",
"        XXXXXXXX....            XXXXXXXX....                    ",
"            ........        XXXXXXXXXXXX....                    ",
"            ........        XXXXXXXXXXXX....                    ",
"            ........        XXXXXXXXXXXX....                    ",
"            ........        XXXXXXXXXXXX....                    ",
"                        XXXXXXXXXXXXXXXX....                    ",
"                        XXXXXXXXXXXXXXXX....                    ",
"                        XXXXXXXXXXXXXXXX....                    ",
"                        XXXXXXXXXXXXXXXX....                    ",
"                XXXXXXXXXXXXXXXX............                    ",
"                XXXXXXXXXXXXXXXX............                    ",
"                XXXXXXXXXXXXXXXX............                    ",
"                XXXXXXXXXXXXXXXX............                    ",
"    XXXXXXXXXXXXXXXXXXXXXXXXXXXXXXXXXXXXXXXXXXXXXXXX            ",
"    XXXXXXXXXXXXXXXXXXXXXXXXXXXXXXXXXXXXXXXXXXXXXXXX            ",
"    XXXXXXXXXXXXXXXXXXXXXXXXXXXXXXXXXXXXXXXXXXXXXXXX            ",
"    XXXXXXXXXXXXXXXXXXXXXXXXXXXXXXXXXXXXXXXXXXXXXXXX            ",
"    XXXXXXXXXXXXXXXXXXXXXXXXXXXXXXXXXXXXXXXXXXXXXXXX....        ",
"    XXXXXXXXXXXXXXXXXXXXXXXXXXXXXXXXXXXXXXXXXXXXXXXX....        ",
"    XXXXXXXXXXXXXXXXXXXXXXXXXXXXXXXXXXXXXXXXXXXXXXXX....        ",
"    XXXXXXXXXXXXXXXXXXXXXXXXXXXXXXXXXXXXXXXXXXXXXXXX....        ",
"        ................................................        ",
"        ................................................        ",
"        ................................................        ",
"        ................................................        ",
"                                                                ",
"                                                                ",
"                                                                ",
"                                                                ",
"                                                                ",
"                                                                ",
"                                                                ",
"                                                                ",
"                                                                ",
"                                                                ",
"                                                                ",
"                                                                "
};
