/* XPM */
static char *_[] = {
/* columns rows colors chars-per-pixel */
"64 64 3 1 ",
"  c None",
". c black",
"X c white",
/* pixels */
"                                                                ",
"                                                                ",
"                                                                ",
"                                                                ",
"            XXXXXXXXXXXXXXXXXXXXXXXX                            ",
"            XXXXXXXXXXXXXXXXXXXXXXXX                            ",
"            XXXXXXXXXXXXXXXXXXXXXXXX                            ",
"            XXXXXXXXXXXXXXXXXXXXXXXX                            ",
"        XXXXXXXXXXXXXXXXXXXXXXXXXXXXXXXX                        ",
"        XXXXXXXXXXXXXXXXXXXXXXXXXXXXXXXX                        ",
"        XXXXXXXXXXXXXXXXXXXXXXXXXXXXXXXX                        ",
"        XXXXXXXXXXXXXXXXXXXXXXXXXXXXXXXX                        ",
"    XXXXXXXXXXXX............XXXXXXXXXXXX....                    ",
"    XXXXXXXXXXXX............XXXXXXXXXXXX....                    ",
"    XXXXXXXXXXXX............XXXXXXXXXXXX....                    ",
"    XXXXXXXXXXXX............XXXXXXXXXXXX....                    ",
"    XXXXXXXX........            XXXXXXXX....                    ",
"    XXXXXXXX........            XXXXXXXX....                    ",
"    XXXXXXXX........            XXXXXXXX....                    ",
"    XXXXXXXX........            XXXXXXXX....                    ",
"        ........            XXXXXXXXXXXX....                    ",
"        ........            XXXXXXXXXXXX....                    ",
"        ........            XXXXXXXXXXXX....                    ",
"        ........            XXXXXXXXXXXX....                    ",
"            XXXXXXXXXXXXXXXXXXXXXXXXXXXX....                    ",
"            XXXXXXXXXXXXXXXXXXXXXXXXXXXX....                    ",
"            XXXXXXXXXXXXXXXXXXXXXXXXXXXX....                    ",
"            XXXXXXXXXXXXXXXXXXXXXXXXXXXX....                    ",
"            XXXXXXXXXXXXXXXXXXXXXXXXXXXXXXXX                    ",
"            XXXXXXXXXXXXXXXXXXXXXXXXXXXXXXXX                    ",
"            XXXXXXXXXXXXXXXXXXXXXXXXXXXXXXXX                    ",
"            XXXXXXXXXXXXXXXXXXXXXXXXXXXXXXXX                    ",
"                ....................XXXXXXXX....                ",
"                ....................XXXXXXXX....                ",
"                ....................XXXXXXXX....                ",
"                ....................XXXXXXXX....                ",
"                                    XXXXXXXX....                ",
"                                    XXXXXXXX....                ",
"                                    XXXXXXXX....                ",
"                                    XXXXXXXX....                ",
"                                XXXXXXXXXXXX....                ",
"                                XXXXXXXXXXXX....                ",
"                                XXXXXXXXXXXX....                ",
"                                XXXXXXXXXXXX....                ",
"        XXXXXXXXXXXXXXXXXXXXXXXXXXXXXXXXXXXX....                ",
"        XXXXXXXXXXXXXXXXXXXXXXXXXXXXXXXXXXXX....                ",
"        XXXXXXXXXXXXXXXXXXXXXXXXXXXXXXXXXXXX....                ",
"        XXXXXXXXXXXXXXXXXXXXXXXXXXXXXXXXXXXX....                ",
"        XXXXXXXXXXXXXXXXXXXXXXXXXXXXXXXX........                ",
"        XXXXXXXXXXXXXXXXXXXXXXXXXXXXXXXX........                ",
"        XXXXXXXXXXXXXXXXXXXXXXXXXXXXXXXX........                ",
"        XXXXXXXXXXXXXXXXXXXXXXXXXXXXXXXX........                ",
"            ................................                    ",
"            ................................                    ",
"            ................................                    ",
"            ................................                    ",
"                                                                ",
"                                                                ",
"                                                                ",
"                                                                ",
"                                                                ",
"                                                                ",
"                                                                ",
"                                                                "
};
