/* XPM */
static char *_[] = {
/* columns rows colors chars-per-pixel */
"64 64 3 1 ",
"  c None",
". c black",
"X c white",
/* pixels */
"                        XXXXXXXX                                ",
"                        XXXXXXXX                                ",
"                        XXXXXXXX                                ",
"                        XXXXXXXX                                ",
"                    XXXXXXXXXXXX....                            ",
"                    XXXXXXXXXXXX....                            ",
"                    XXXXXXXXXXXX....                            ",
"                    XXXXXXXXXXXX....                            ",
"                XXXXXXXXXXXX........                            ",
"                XXXXXXXXXXXX........                            ",
"                XXXXXXXXXXXX........                            ",
"                XXXXXXXXXXXX........                            ",
"            XXXXXXXXXXXX........                                ",
"            XXXXXXXXXXXX........                                ",
"            XXXXXXXXXXXX........                                ",
"            XXXXXXXXXXXX........                                ",
"        XXXXXXXXXXXX........                                    ",
"        XXXXXXXXXXXX........                                    ",
"        XXXXXXXXXXXX........                                    ",
"        XXXXXXXXXXXX........                                    ",
"        XXXXXXXX........    XXXXXXXX                            ",
"        XXXXXXXX........    XXXXXXXX                            ",
"        XXXXXXXX........    XXXXXXXX                            ",
"        XXXXXXXX........    XXXXXXXX                            ",
"    XXXXXXXXXXXX....        XXXXXXXX....                        ",
"    XXXXXXXXXXXX....        XXXXXXXX....                        ",
"    XXXXXXXXXXXX....        XXXXXXXX....                        ",
"    XXXXXXXXXXXX....        XXXXXXXX....                        ",
"XXXXXXXXXXXX........        XXXXXXXX....                        ",
"XXXXXXXXXXXX........        XXXXXXXX....                        ",
"XXXXXXXXXXXX........        XXXXXXXX....                        ",
"XXXXXXXXXXXX........        XXXXXXXX....                        ",
"XXXXXXXXXXXXXXXXXXXXXXXXXXXXXXXXXXXXXXXXXXXXXXXX                ",
"XXXXXXXXXXXXXXXXXXXXXXXXXXXXXXXXXXXXXXXXXXXXXXXX                ",
"XXXXXXXXXXXXXXXXXXXXXXXXXXXXXXXXXXXXXXXXXXXXXXXX                ",
"XXXXXXXXXXXXXXXXXXXXXXXXXXXXXXXXXXXXXXXXXXXXXXXX                ",
"XXXXXXXXXXXXXXXXXXXXXXXXXXXXXXXXXXXXXXXXXXXXXXXX....            ",
"XXXXXXXXXXXXXXXXXXXXXXXXXXXXXXXXXXXXXXXXXXXXXXXX....            ",
"XXXXXXXXXXXXXXXXXXXXXXXXXXXXXXXXXXXXXXXXXXXXXXXX....            ",
"XXXXXXXXXXXXXXXXXXXXXXXXXXXXXXXXXXXXXXXXXXXXXXXX....            ",
"    ........................XXXXXXXX................            ",
"    ........................XXXXXXXX................            ",
"    ........................XXXXXXXX................            ",
"    ........................XXXXXXXX................            ",
"                            XXXXXXXX....                        ",
"                            XXXXXXXX....                        ",
"                            XXXXXXXX....                        ",
"                            XXXXXXXX....                        ",
"                            XXXXXXXX....                        ",
"                            XXXXXXXX....                        ",
"                            XXXXXXXX....                        ",
"                            XXXXXXXX....                        ",
"                            XXXXXXXX....                        ",
"                            XXXXXXXX....                        ",
"                            XXXXXXXX....                        ",
"                            XXXXXXXX....                        ",
"                                ........                        ",
"                                ........                        ",
"                                ........                        ",
"                                ........                        ",
"                                                                ",
"                                                                ",
"                                                                ",
"                                                                "
};
