/* XPM */
static char *_[] = {
/* columns rows colors chars-per-pixel */
"64 64 3 1 ",
"  c None",
". c black",
"X c white",
/* pixels */
"        XXXXXXXXXXXXXXXXXXXXXXXXXXXXXXXXXXXXXXXX                ",
"        XXXXXXXXXXXXXXXXXXXXXXXXXXXXXXXXXXXXXXXX                ",
"        XXXXXXXXXXXXXXXXXXXXXXXXXXXXXXXXXXXXXXXX                ",
"        XXXXXXXXXXXXXXXXXXXXXXXXXXXXXXXXXXXXXXXX                ",
"        XXXXXXXXXXXXXXXXXXXXXXXXXXXXXXXXXXXXXXXX....            ",
"        XXXXXXXXXXXXXXXXXXXXXXXXXXXXXXXXXXXXXXXX....            ",
"        XXXXXXXXXXXXXXXXXXXXXXXXXXXXXXXXXXXXXXXX....            ",
"        XXXXXXXXXXXXXXXXXXXXXXXXXXXXXXXXXXXXXXXX....            ",
"        XXXXXXXX....................................            ",
"        XXXXXXXX....................................            ",
"        XXXXXXXX....................................            ",
"        XXXXXXXX....................................            ",
"        XXXXXXXX....                                            ",
"        XXXXXXXX....                                            ",
"        XXXXXXXX....                                            ",
"        XXXXXXXX....                                            ",
"        XXXXXXXXXXXXXXXXXXXXXXXXXXXXXXXX                        ",
"        XXXXXXXXXXXXXXXXXXXXXXXXXXXXXXXX                        ",
"        XXXXXXXXXXXXXXXXXXXXXXXXXXXXXXXX                        ",
"        XXXXXXXXXXXXXXXXXXXXXXXXXXXXXXXX                        ",
"        XXXXXXXXXXXXXXXXXXXXXXXXXXXXXXXX....                    ",
"        XXXXXXXXXXXXXXXXXXXXXXXXXXXXXXXX....                    ",
"        XXXXXXXXXXXXXXXXXXXXXXXXXXXXXXXX....                    ",
"        XXXXXXXXXXXXXXXXXXXXXXXXXXXXXXXX....                    ",
"        XXXXXXXXXXXX............XXXXXXXX....                    ",
"        XXXXXXXXXXXX............XXXXXXXX....                    ",
"        XXXXXXXXXXXX............XXXXXXXX....                    ",
"        XXXXXXXXXXXX............XXXXXXXX....                    ",
"            ............        XXXXXXXX....                    ",
"            ............        XXXXXXXX....                    ",
"            ............        XXXXXXXX....                    ",
"            ............        XXXXXXXX....                    ",
"                            XXXXXXXXXXXX....                    ",
"                            XXXXXXXXXXXX....                    ",
"                            XXXXXXXXXXXX....                    ",
"                            XXXXXXXXXXXX....                    ",
"        XXXXXXXXXXXXXXXXXXXXXXXXXXXXXXXX....                    ",
"        XXXXXXXXXXXXXXXXXXXXXXXXXXXXXXXX....                    ",
"        XXXXXXXXXXXXXXXXXXXXXXXXXXXXXXXX....                    ",
"        XXXXXXXXXXXXXXXXXXXXXXXXXXXXXXXX....                    ",
"        XXXXXXXXXXXXXXXXXXXXXXXX............                    ",
"        XXXXXXXXXXXXXXXXXXXXXXXX............                    ",
"        XXXXXXXXXXXXXXXXXXXXXXXX............                    ",
"        XXXXXXXXXXXXXXXXXXXXXXXX............                    ",
"            ........................                            ",
"            ........................                            ",
"            ........................                            ",
"            ........................                            ",
"                                                                ",
"                                                                ",
"                                                                ",
"                                                                ",
"                                                                ",
"                                                                ",
"                                                                ",
"                                                                ",
"                                                                ",
"                                                                ",
"                                                                ",
"                                                                ",
"                                                                ",
"                                                                ",
"                                                                ",
"                                                                "
};
