/* XPM */
static char *_[] = {
/* columns rows colors chars-per-pixel */
"64 64 3 1 ",
"  c None",
". c black",
"X c white",
/* pixels */
"                            XXXXXXXXXXXXXXXX....                ",
"                            XXXXXXXXXXXXXXXX....                ",
"                            XXXXXXXXXXXXXXXX....                ",
"                            XXXXXXXXXXXXXXXX....                ",
"                        XXXXXXXXXXXX............                ",
"                        XXXXXXXXXXXX............                ",
"                        XXXXXXXXXXXX............                ",
"                        XXXXXXXXXXXX............                ",
"                    XXXXXXXXXXXX........                        ",
"                    XXXXXXXXXXXX........                        ",
"                    XXXXXXXXXXXX........                        ",
"                    XXXXXXXXXXXX........                        ",
"                    XXXXXXXX........                            ",
"                    XXXXXXXX........                            ",
"                    XXXXXXXX........                            ",
"                    XXXXXXXX........                            ",
"                XXXXXXXXXXXX....                                ",
"                XXXXXXXXXXXX....                                ",
"                XXXXXXXXXXXX....                                ",
"                XXXXXXXXXXXX....                                ",
"            XXXXXXXXXXXX........                                ",
"            XXXXXXXXXXXX........                                ",
"            XXXXXXXXXXXX........                                ",
"            XXXXXXXXXXXX........                                ",
"        XXXXXXXXXXXX........                                    ",
"        XXXXXXXXXXXX........                                    ",
"        XXXXXXXXXXXX........                                    ",
"        XXXXXXXXXXXX........                                    ",
"        XXXXXXXXXXXXXXXXXXXXXXXXXXXX                            ",
"        XXXXXXXXXXXXXXXXXXXXXXXXXXXX                            ",
"        XXXXXXXXXXXXXXXXXXXXXXXXXXXX                            ",
"        XXXXXXXXXXXXXXXXXXXXXXXXXXXX                            ",
"        XXXXXXXXXXXXXXXXXXXXXXXXXXXXXXXXXXXX                    ",
"        XXXXXXXXXXXXXXXXXXXXXXXXXXXXXXXXXXXX                    ",
"        XXXXXXXXXXXXXXXXXXXXXXXXXXXXXXXXXXXX                    ",
"        XXXXXXXXXXXXXXXXXXXXXXXXXXXXXXXXXXXX                    ",
"        XXXXXXXX................XXXXXXXXXXXX....                ",
"        XXXXXXXX................XXXXXXXXXXXX....                ",
"        XXXXXXXX................XXXXXXXXXXXX....                ",
"        XXXXXXXX................XXXXXXXXXXXX....                ",
"        XXXXXXXX....                XXXXXXXX....                ",
"        XXXXXXXX....                XXXXXXXX....                ",
"        XXXXXXXX....                XXXXXXXX....                ",
"        XXXXXXXX....                XXXXXXXX....                ",
"        XXXXXXXXXXXXXXXXXXXXXXXXXXXXXXXXXXXX....                ",
"        XXXXXXXXXXXXXXXXXXXXXXXXXXXXXXXXXXXX....                ",
"        XXXXXXXXXXXXXXXXXXXXXXXXXXXXXXXXXXXX....                ",
"        XXXXXXXXXXXXXXXXXXXXXXXXXXXXXXXXXXXX....                ",
"            XXXXXXXXXXXXXXXXXXXXXXXXXXXXXXXX....                ",
"            XXXXXXXXXXXXXXXXXXXXXXXXXXXXXXXX....                ",
"            XXXXXXXXXXXXXXXXXXXXXXXXXXXXXXXX....                ",
"            XXXXXXXXXXXXXXXXXXXXXXXXXXXXXXXX....                ",
"                ................................                ",
"                ................................                ",
"                ................................                ",
"                ................................                ",
"                                                                ",
"                                                                ",
"                                                                ",
"                                                                ",
"                                                                ",
"                                                                ",
"                                                                ",
"                                                                "
};
