/* XPM */
static char *_[] = {
/* columns rows colors chars-per-pixel */
"64 64 3 1 ",
"  c None",
". c black",
"X c white",
/* pixels */
"                                                                ",
"                                                                ",
"                                                                ",
"                                                                ",
"    XXXXXXXXXXXXXXXXXXXXXXXXXXXXXXXXXXXXXXXX                    ",
"    XXXXXXXXXXXXXXXXXXXXXXXXXXXXXXXXXXXXXXXX                    ",
"    XXXXXXXXXXXXXXXXXXXXXXXXXXXXXXXXXXXXXXXX                    ",
"    XXXXXXXXXXXXXXXXXXXXXXXXXXXXXXXXXXXXXXXX                    ",
"    XXXXXXXXXXXXXXXXXXXXXXXXXXXXXXXXXXXXXXXX....                ",
"    XXXXXXXXXXXXXXXXXXXXXXXXXXXXXXXXXXXXXXXX....                ",
"    XXXXXXXXXXXXXXXXXXXXXXXXXXXXXXXXXXXXXXXX....                ",
"    XXXXXXXXXXXXXXXXXXXXXXXXXXXXXXXXXXXXXXXX....                ",
"        ............................XXXXXXXX....                ",
"        ............................XXXXXXXX....                ",
"        ............................XXXXXXXX....                ",
"        ............................XXXXXXXX....                ",
"                                    XXXXXXXX....                ",
"                                    XXXXXXXX....                ",
"                                    XXXXXXXX....                ",
"                                    XXXXXXXX....                ",
"                                    XXXXXXXX....                ",
"                                    XXXXXXXX....                ",
"                                    XXXXXXXX....                ",
"                                    XXXXXXXX....                ",
"            XXXXXXXXXXXXXXXXXXXXXXXXXXXXXXXXXXXX                ",
"            XXXXXXXXXXXXXXXXXXXXXXXXXXXXXXXXXXXX                ",
"            XXXXXXXXXXXXXXXXXXXXXXXXXXXXXXXXXXXX                ",
"            XXXXXXXXXXXXXXXXXXXXXXXXXXXXXXXXXXXX                ",
"            XXXXXXXXXXXXXXXXXXXXXXXXXXXXXXXXXXXX....            ",
"            XXXXXXXXXXXXXXXXXXXXXXXXXXXXXXXXXXXX....            ",
"            XXXXXXXXXXXXXXXXXXXXXXXXXXXXXXXXXXXX....            ",
"            XXXXXXXXXXXXXXXXXXXXXXXXXXXXXXXXXXXX....            ",
"                ................XXXXXXXX............            ",
"                ................XXXXXXXX............            ",
"                ................XXXXXXXX............            ",
"                ................XXXXXXXX............            ",
"                        XXXXXXXXXXXXXXXX....                    ",
"                        XXXXXXXXXXXXXXXX....                    ",
"                        XXXXXXXXXXXXXXXX....                    ",
"                        XXXXXXXXXXXXXXXX....                    ",
"                    XXXXXXXXXXXXXXXX........                    ",
"                    XXXXXXXXXXXXXXXX........                    ",
"                    XXXXXXXXXXXXXXXX........                    ",
"                    XXXXXXXXXXXXXXXX........                    ",
"                    XXXXXXXXXXXX........                        ",
"                    XXXXXXXXXXXX........                        ",
"                    XXXXXXXXXXXX........                        ",
"                    XXXXXXXXXXXX........                        ",
"                        ............                            ",
"                        ............                            ",
"                        ............                            ",
"                        ............                            ",
"                                                                ",
"                                                                ",
"                                                                ",
"                                                                ",
"                                                                ",
"                                                                ",
"                                                                ",
"                                                                ",
"                                                                ",
"                                                                ",
"                                                                ",
"                                                                "
};
