/* XPM */
static char *_[] = {
/* columns rows colors chars-per-pixel */
"64 64 3 1 ",
"  c None",
". c black",
"X c white",
/* pixels */
"                    XXXXXXXXXXXX                                ",
"                    XXXXXXXXXXXX                                ",
"                    XXXXXXXXXXXX                                ",
"                    XXXXXXXXXXXX                                ",
"                XXXXXXXXXXXXXXXXXXXXXXXX                        ",
"                XXXXXXXXXXXXXXXXXXXXXXXX                        ",
"                XXXXXXXXXXXXXXXXXXXXXXXX                        ",
"                XXXXXXXXXXXXXXXXXXXXXXXX                        ",
"            XXXXXXXXXXXXXXXXXXXXXXXXXXXXXXXX                    ",
"            XXXXXXXXXXXXXXXXXXXXXXXXXXXXXXXX                    ",
"            XXXXXXXXXXXXXXXXXXXXXXXXXXXXXXXX                    ",
"            XXXXXXXXXXXXXXXXXXXXXXXXXXXXXXXX                    ",
"        XXXXXXXXXXXX............XXXXXXXXXXXXXXXX                ",
"        XXXXXXXXXXXX............XXXXXXXXXXXXXXXX                ",
"        XXXXXXXXXXXX............XXXXXXXXXXXXXXXX                ",
"        XXXXXXXXXXXX............XXXXXXXXXXXXXXXX                ",
"        XXXXXXXX........            XXXXXXXXXXXX....            ",
"        XXXXXXXX........            XXXXXXXXXXXX....            ",
"        XXXXXXXX........            XXXXXXXXXXXX....            ",
"        XXXXXXXX........            XXXXXXXXXXXX....            ",
"        XXXXXXXX....                XXXXXXXXXXXX....            ",
"        XXXXXXXX....                XXXXXXXXXXXX....            ",
"        XXXXXXXX....                XXXXXXXXXXXX....            ",
"        XXXXXXXX....                XXXXXXXXXXXX....            ",
"        XXXXXXXXXXXX    XXXXXXXXXXXXXXXXXXXX........            ",
"        XXXXXXXXXXXX    XXXXXXXXXXXXXXXXXXXX........            ",
"        XXXXXXXXXXXX    XXXXXXXXXXXXXXXXXXXX........            ",
"        XXXXXXXXXXXX    XXXXXXXXXXXXXXXXXXXX........            ",
"            XXXXXXXXXXXXXXXXXXXXXXXXXXXX........                ",
"            XXXXXXXXXXXXXXXXXXXXXXXXXXXX........                ",
"            XXXXXXXXXXXXXXXXXXXXXXXXXXXX........                ",
"            XXXXXXXXXXXXXXXXXXXXXXXXXXXX........                ",
"        XXXXXXXXXXXXXXXXXXXXXXXXXXXXXXXXXXXXXXXX                ",
"        XXXXXXXXXXXXXXXXXXXXXXXXXXXXXXXXXXXXXXXX                ",
"        XXXXXXXXXXXXXXXXXXXXXXXXXXXXXXXXXXXXXXXX                ",
"        XXXXXXXXXXXXXXXXXXXXXXXXXXXXXXXXXXXXXXXX                ",
"        XXXXXXXXXXXX........XXXXXXXXXXXXXXXXXXXX....            ",
"        XXXXXXXXXXXX........XXXXXXXXXXXXXXXXXXXX....            ",
"        XXXXXXXXXXXX........XXXXXXXXXXXXXXXXXXXX....            ",
"        XXXXXXXXXXXX........XXXXXXXXXXXXXXXXXXXX....            ",
"    XXXXXXXXXXXX........        ........XXXXXXXX....            ",
"    XXXXXXXXXXXX........        ........XXXXXXXX....            ",
"    XXXXXXXXXXXX........        ........XXXXXXXX....            ",
"    XXXXXXXXXXXX........        ........XXXXXXXX....            ",
"    XXXXXXXXXXXX....                XXXXXXXXXXXX....            ",
"    XXXXXXXXXXXX....                XXXXXXXXXXXX....            ",
"    XXXXXXXXXXXX....                XXXXXXXXXXXX....            ",
"    XXXXXXXXXXXX....                XXXXXXXXXXXX....            ",
"    XXXXXXXXXXXXXXXXXXXX        XXXXXXXXXXXXXXXX....            ",
"    XXXXXXXXXXXXXXXXXXXX        XXXXXXXXXXXXXXXX....            ",
"    XXXXXXXXXXXXXXXXXXXX        XXXXXXXXXXXXXXXX....            ",
"    XXXXXXXXXXXXXXXXXXXX        XXXXXXXXXXXXXXXX....            ",
"        XXXXXXXXXXXXXXXXXXXXXXXXXXXXXXXXXXXX........            ",
"        XXXXXXXXXXXXXXXXXXXXXXXXXXXXXXXXXXXX........            ",
"        XXXXXXXXXXXXXXXXXXXXXXXXXXXXXXXXXXXX........            ",
"        XXXXXXXXXXXXXXXXXXXXXXXXXXXXXXXXXXXX........            ",
"            ........XXXXXXXXXXXXXXXX............                ",
"            ........XXXXXXXXXXXXXXXX............                ",
"            ........XXXXXXXXXXXXXXXX............                ",
"            ........XXXXXXXXXXXXXXXX............                ",
"                        ................                        ",
"                        ................                        ",
"                        ................                        ",
"                        ................                        "
};
