/* XPM */
static char *_[] = {
/* columns rows colors chars-per-pixel */
"64 64 3 1 ",
"  c None",
". c black",
"X c white",
/* pixels */
"            XXXXXXXXXXXXXXXXXXXXXXXXXXXX                        ",
"            XXXXXXXXXXXXXXXXXXXXXXXXXXXX                        ",
"            XXXXXXXXXXXXXXXXXXXXXXXXXXXX                        ",
"            XXXXXXXXXXXXXXXXXXXXXXXXXXXX                        ",
"        XXXXXXXXXXXXXXXXXXXXXXXXXXXXXXXX....                    ",
"        XXXXXXXXXXXXXXXXXXXXXXXXXXXXXXXX....                    ",
"        XXXXXXXXXXXXXXXXXXXXXXXXXXXXXXXX....                    ",
"        XXXXXXXXXXXXXXXXXXXXXXXXXXXXXXXX....                    ",
"    XXXXXXXXXXXXXXXX............XXXXXXXXXXXX                    ",
"    XXXXXXXXXXXXXXXX............XXXXXXXXXXXX                    ",
"    XXXXXXXXXXXXXXXX............XXXXXXXXXXXX                    ",
"    XXXXXXXXXXXXXXXX............XXXXXXXXXXXX                    ",
"    XXXXXXXXXXXX........        XXXXXXXXXXXX....                ",
"    XXXXXXXXXXXX........        XXXXXXXXXXXX....                ",
"    XXXXXXXXXXXX........        XXXXXXXXXXXX....                ",
"    XXXXXXXXXXXX........        XXXXXXXXXXXX....                ",
"    XXXXXXXX........            XXXXXXXXXXXX....                ",
"    XXXXXXXX........            XXXXXXXXXXXX....                ",
"    XXXXXXXX........            XXXXXXXXXXXX....                ",
"    XXXXXXXX........            XXXXXXXXXXXX....                ",
"    XXXXXXXXXXXXXXXX        XXXXXXXXXXXXXXXX....                ",
"    XXXXXXXXXXXXXXXX        XXXXXXXXXXXXXXXX....                ",
"    XXXXXXXXXXXXXXXX        XXXXXXXXXXXXXXXX....                ",
"    XXXXXXXXXXXXXXXX        XXXXXXXXXXXXXXXX....                ",
"    XXXXXXXXXXXXXXXXXXXXXXXXXXXXXXXXXXXXXXXXXXXX                ",
"    XXXXXXXXXXXXXXXXXXXXXXXXXXXXXXXXXXXXXXXXXXXX                ",
"    XXXXXXXXXXXXXXXXXXXXXXXXXXXXXXXXXXXXXXXXXXXX                ",
"    XXXXXXXXXXXXXXXXXXXXXXXXXXXXXXXXXXXXXXXXXXXX                ",
"        ....XXXXXXXXXXXXXXXXXXXXXXXX....XXXXXXXX....            ",
"        ....XXXXXXXXXXXXXXXXXXXXXXXX....XXXXXXXX....            ",
"        ....XXXXXXXXXXXXXXXXXXXXXXXX....XXXXXXXX....            ",
"        ....XXXXXXXXXXXXXXXXXXXXXXXX....XXXXXXXX....            ",
"                ........................XXXXXXXX....            ",
"                ........................XXXXXXXX....            ",
"                ........................XXXXXXXX....            ",
"                ........................XXXXXXXX....            ",
"                                    XXXXXXXXXXXX....            ",
"                                    XXXXXXXXXXXX....            ",
"                                    XXXXXXXXXXXX....            ",
"                                    XXXXXXXXXXXX....            ",
"        XXXXXXXX        XXXXXXXXXXXXXXXXXXXXXXXX....            ",
"        XXXXXXXX        XXXXXXXXXXXXXXXXXXXXXXXX....            ",
"        XXXXXXXX        XXXXXXXXXXXXXXXXXXXXXXXX....            ",
"        XXXXXXXX        XXXXXXXXXXXXXXXXXXXXXXXX....            ",
"        XXXXXXXXXXXXXXXXXXXXXXXXXXXXXXXXXXXX........            ",
"        XXXXXXXXXXXXXXXXXXXXXXXXXXXXXXXXXXXX........            ",
"        XXXXXXXXXXXXXXXXXXXXXXXXXXXXXXXXXXXX........            ",
"        XXXXXXXXXXXXXXXXXXXXXXXXXXXXXXXXXXXX........            ",
"        XXXXXXXXXXXXXXXXXXXXXXXX................                ",
"        XXXXXXXXXXXXXXXXXXXXXXXX................                ",
"        XXXXXXXXXXXXXXXXXXXXXXXX................                ",
"        XXXXXXXXXXXXXXXXXXXXXXXX................                ",
"            ........................                            ",
"            ........................                            ",
"            ........................                            ",
"            ........................                            ",
"                                                                ",
"                                                                ",
"                                                                ",
"                                                                ",
"                                                                ",
"                                                                ",
"                                                                ",
"                                                                "
};
