/* XPM */
static char *coin_anim_f0[] = {
/* columns rows colors chars-per-pixel */
"32 32 4 1 ",
"  c None",
". c #EE8E2E",
"X c #FACB3E",
"o c #FDF7ED",
/* pixels */
"                                ",
"                                ",
"                                ",
"                                ",
"            ....oooo            ",
"            ....oooo            ",
"            ....oooo            ",
"            ....oooo            ",
"        ....XXXXXXXXoooo        ",
"        ....XXXXXXXXoooo        ",
"        ....XXXXXXXXoooo        ",
"        ....XXXXXXXXoooo        ",
"    ....XXXXXXXXXXXXXXXXoooo    ",
"    ....XXXXXXXXXXXXXXXXoooo    ",
"    ....XXXXXXXXXXXXXXXXoooo    ",
"    ....XXXXXXXXXXXXXXXXoooo    ",
"    ....XXXXXXXXXXXXXXXXoooo    ",
"    ....XXXXXXXXXXXXXXXXoooo    ",
"    ....XXXXXXXXXXXXXXXXoooo    ",
"    ....XXXXXXXXXXXXXXXXoooo    ",
"    ....XXXXXXXXXXXXXXXXoooo    ",
"    ....XXXXXXXXXXXXXXXXoooo    ",
"    ....XXXXXXXXXXXXXXXXoooo    ",
"    ....XXXXXXXXXXXXXXXXoooo    ",
"        ....XXXXXXXXoooo        ",
"        ....XXXXXXXXoooo        ",
"        ....XXXXXXXXoooo        ",
"        ....XXXXXXXXoooo        ",
"            ....oooo            ",
"            ....oooo            ",
"            ....oooo            ",
"            ....oooo            "
};
