/* XPM */
static char *coin_anim_f2[] = {
/* columns rows colors chars-per-pixel */
"32 32 3 1 ",
"  c None",
". c #EE8E2E",
"X c #FACB3E",
/* pixels */
"                                ",
"                                ",
"                                ",
"                                ",
"            XXXX....            ",
"            XXXX....            ",
"            XXXX....            ",
"            XXXX....            ",
"            XXXX....            ",
"            XXXX....            ",
"            XXXX....            ",
"            XXXX....            ",
"            XXXX....            ",
"            XXXX....            ",
"            XXXX....            ",
"            XXXX....            ",
"            XXXX....            ",
"            XXXX....            ",
"            XXXX....            ",
"            XXXX....            ",
"            XXXX....            ",
"            XXXX....            ",
"            XXXX....            ",
"            XXXX....            ",
"            XXXX....            ",
"            XXXX....            ",
"            XXXX....            ",
"            XXXX....            ",
"            XXXX....            ",
"            XXXX....            ",
"            XXXX....            ",
"            XXXX....            "
};
