/* XPM */
static char *coin_anim_f1[] = {
/* columns rows colors chars-per-pixel */
"32 32 2 1 ",
"  c None",
". c #FDF7ED",
/* pixels */
"                                ",
"                                ",
"                                ",
"                                ",
"            ........            ",
"            ........            ",
"            ........            ",
"            ........            ",
"        ................        ",
"        ................        ",
"        ................        ",
"        ................        ",
"        ................        ",
"        ................        ",
"        ................        ",
"        ................        ",
"        ................        ",
"        ................        ",
"        ................        ",
"        ................        ",
"        ................        ",
"        ................        ",
"        ................        ",
"        ................        ",
"        ................        ",
"        ................        ",
"        ................        ",
"        ................        ",
"            ........            ",
"            ........            ",
"            ........            ",
"            ........            "
};
