/* XPM */
static char *flask_big_blue[] = {
/* columns rows colors chars-per-pixel */
"64 64 8 1 ",
"  c None",
". c #222222",
"X c #8F4029",
"o c #C56025",
"O c #5956BD",
"+ c #5698CC",
"@ c #B6CBCF",
"# c #FDF7ED",
/* pixels */
"                                                                ",
"                                                                ",
"                                                                ",
"                                                                ",
"                                                                ",
"                                                                ",
"                                                                ",
"                                                                ",
"                                                                ",
"                                                                ",
"                                                                ",
"                                                                ",
"                                                                ",
"                                                                ",
"                                                                ",
"                                                                ",
"                ................................                ",
"                ................................                ",
"                ................................                ",
"                ................................                ",
"                ....XXXXXXXXoooooooooooooooo....                ",
"                ....XXXXXXXXoooooooooooooooo....                ",
"                ....XXXXXXXXoooooooooooooooo....                ",
"                ....XXXXXXXXoooooooooooooooo....                ",
"                ....####@@@@@@@@@@@@@@@@####....                ",
"                ....####@@@@@@@@@@@@@@@@####....                ",
"                ....####@@@@@@@@@@@@@@@@####....                ",
"                ....####@@@@@@@@@@@@@@@@####....                ",
"                    ....####@@@@@@@@####....                    ",
"                    ....####@@@@@@@@####....                    ",
"                    ....####@@@@@@@@####....                    ",
"                    ....####@@@@@@@@####....                    ",
"                    ....####OOOOOOOO####....                    ",
"                    ....####OOOOOOOO####....                    ",
"                    ....####OOOOOOOO####....                    ",
"                    ....####OOOOOOOO####....                    ",
"                ....####OOOO####OOOOOOOO####....                ",
"                ....####OOOO####OOOOOOOO####....                ",
"                ....####OOOO####OOOOOOOO####....                ",
"                ....####OOOO####OOOOOOOO####....                ",
"            ....####OOOO####OOOOOOOOOOOOOOOO++++....            ",
"            ....####OOOO####OOOOOOOOOOOOOOOO++++....            ",
"            ....####OOOO####OOOOOOOOOOOOOOOO++++....            ",
"            ....####OOOO####OOOOOOOOOOOOOOOO++++....            ",
"            ....####++++OOOO####OOOO++++OOOO++++....            ",
"            ....####++++OOOO####OOOO++++OOOO++++....            ",
"            ....####++++OOOO####OOOO++++OOOO++++....            ",
"            ....####++++OOOO####OOOO++++OOOO++++....            ",
"            ....####OOOOOOOO++++++++OOOOOOOO++++....            ",
"            ....####OOOOOOOO++++++++OOOOOOOO++++....            ",
"            ....####OOOOOOOO++++++++OOOOOOOO++++....            ",
"            ....####OOOOOOOO++++++++OOOOOOOO++++....            ",
"                ....####++++++++++++++++++++....                ",
"                ....####++++++++++++++++++++....                ",
"                ....####++++++++++++++++++++....                ",
"                ....####++++++++++++++++++++....                ",
"                    ........................                    ",
"                    ........................                    ",
"                    ........................                    ",
"                    ........................                    ",
"                                                                ",
"                                                                ",
"                                                                ",
"                                                                "
};
