/* XPM */
static char *floor_2[] = {
/* columns rows colors chars-per-pixel */
"64 64 3 1 ",
"  c #222222",
". c #483B3A",
"X c #775C55",
/* pixels */
"            ....                ............    ....            ",
"            ....                ............    ....            ",
"            ....                ............    ....            ",
"            ....                ............    ....            ",
"    ........................................................XXXX",
"    ........................................................XXXX",
"    ........................................................XXXX",
"    ........................................................XXXX",
"............................................................XXXX",
"............................................................XXXX",
"............................................................XXXX",
"............................................................XXXX",
"............................................................XXXX",
"............................................................XXXX",
"............................................................XXXX",
"............................................................XXXX",
"    ............XXXX........................................XXXX",
"    ............XXXX........................................XXXX",
"    ............XXXX........................................XXXX",
"    ............XXXX........................................XXXX",
"........XXXXXXXX        XXXX................................XXXX",
"........XXXXXXXX        XXXX................................XXXX",
"........XXXXXXXX        XXXX................................XXXX",
"........XXXXXXXX        XXXX................................XXXX",
"    ....        ........        XXXX............................",
"    ....        ........        XXXX............................",
"    ....        ........        XXXX............................",
"    ....        ........        XXXX............................",
"        ........................    ........................XXXX",
"        ........................    ........................XXXX",
"        ........................    ........................XXXX",
"        ........................    ........................XXXX",
"    ................................    XXXXXXXX................",
"    ................................    XXXXXXXX................",
"    ................................    XXXXXXXX................",
"    ................................    XXXXXXXX................",
"................................    XXXX        XXXXXXXXXXXXXXXX",
"................................    XXXX        XXXXXXXXXXXXXXXX",
"................................    XXXX        XXXXXXXXXXXXXXXX",
"................................    XXXX        XXXXXXXXXXXXXXXX",
"............................XXXX    ............            XXXX",
"............................XXXX    ............            XXXX",
"............................XXXX    ............            XXXX",
"............................XXXX    ............            XXXX",
"    ....................XXXX    ................................",
"    ....................XXXX    ................................",
"    ....................XXXX    ................................",
"    ....................XXXX    ................................",
"    ....................    ....................................",
"    ....................    ....................................",
"    ....................    ....................................",
"    ....................    ....................................",
"    ................XXXX    ................................XXXX",
"    ................XXXX    ................................XXXX",
"    ................XXXX    ................................XXXX",
"    ................XXXX    ................................XXXX",
"    ................        ................................XXXX",
"    ................        ................................XXXX",
"    ................        ................................XXXX",
"    ................        ................................XXXX",
"XXXXXXXXXXXX....XXXXXXXX....XXXXXXXXXXXXXXXX....XXXXXXXXXXXXXXXX",
"XXXXXXXXXXXX....XXXXXXXX....XXXXXXXXXXXXXXXX....XXXXXXXXXXXXXXXX",
"XXXXXXXXXXXX....XXXXXXXX....XXXXXXXXXXXXXXXX....XXXXXXXXXXXXXXXX",
"XXXXXXXXXXXX....XXXXXXXX....XXXXXXXXXXXXXXXX....XXXXXXXXXXXXXXXX"
};
