/* XPM */
static char *floor_5[] = {
/* columns rows colors chars-per-pixel */
"64 64 3 1 ",
"  c #222222",
". c #483B3A",
"X c #775C55",
/* pixels */
"            ....                ............    ....            ",
"            ....                ............    ....            ",
"            ....                ............    ....            ",
"            ....                ............    ....            ",
"    ............    XXXX....................................XXXX",
"    ............    XXXX....................................XXXX",
"    ............    XXXX....................................XXXX",
"    ............    XXXX....................................XXXX",
"............XXXX....    ....................................XXXX",
"............XXXX....    ....................................XXXX",
"............XXXX....    ....................................XXXX",
"............XXXX....    ....................................XXXX",
"XXXX........    ............................................XXXX",
"XXXX........    ............................................XXXX",
"XXXX........    ............................................XXXX",
"XXXX........    ............................................XXXX",
"    ........................................................XXXX",
"    ........................................................XXXX",
"    ........................................................XXXX",
"    ........................................................XXXX",
"............................................................XXXX",
"............................................................XXXX",
"............................................................XXXX",
"............................................................XXXX",
"    ............................................................",
"    ............................................................",
"    ............................................................",
"    ............................................................",
"    ........................................................XXXX",
"    ........................................................XXXX",
"    ........................................................XXXX",
"    ........................................................XXXX",
"    ............................................................",
"    ............................................................",
"    ............................................................",
"    ............................................................",
"    ............................................................",
"    ............................................................",
"    ............................................................",
"    ............................................................",
"    ........................................................XXXX",
"    ........................................................XXXX",
"    ........................................................XXXX",
"    ........................................................XXXX",
"    ............................................................",
"    ............................................................",
"    ............................................................",
"    ............................................................",
"    ............................................................",
"    ............................................................",
"    ............................................................",
"    ............................................................",
"    ........XXXX    ........................................XXXX",
"    ........XXXX    ........................................XXXX",
"    ........XXXX    ........................................XXXX",
"    ........XXXX    ........................................XXXX",
"    ....XXXX    ............................................XXXX",
"    ....XXXX    ............................................XXXX",
"    ....XXXX    ............................................XXXX",
"    ....XXXX    ............................................XXXX",
"XXXXXXXXXXXX        XXXX....XXXXXXXXXXXXXXXX....XXXXXXXXXXXXXXXX",
"XXXXXXXXXXXX        XXXX....XXXXXXXXXXXXXXXX....XXXXXXXXXXXXXXXX",
"XXXXXXXXXXXX        XXXX....XXXXXXXXXXXXXXXX....XXXXXXXXXXXXXXXX",
"XXXXXXXXXXXX        XXXX....XXXXXXXXXXXXXXXX....XXXXXXXXXXXXXXXX"
};
