/* XPM */
static char *floor_ladder[] = {
/* columns rows colors chars-per-pixel */
"64 64 6 1 ",
"  c #222222",
". c #483B3A",
"X c #62232F",
"o c #775C55",
"O c #8F4029",
"+ c #C56025",
/* pixels */
"            ....                ............    ....            ",
"            ....                ............    ....            ",
"            ....                ............    ....            ",
"            ....                ............    ....            ",
"    ........................................................oooo",
"    ........................................................oooo",
"    ........................................................oooo",
"    ........................................................oooo",
"............................................................oooo",
"............................................................oooo",
"............................................................oooo",
"............................................................oooo",
"............................................................oooo",
"............................................................oooo",
"............................................................oooo",
"............................................................oooo",
"    ............++++oooooooooooooooooooooooo++++............oooo",
"    ............++++oooooooooooooooooooooooo++++............oooo",
"    ............++++oooooooooooooooooooooooo++++............oooo",
"    ............++++oooooooooooooooooooooooo++++............oooo",
"........oooooooo++++    ++++++++++++++++oooo++++oooooooo....oooo",
"........oooooooo++++    ++++++++++++++++oooo++++oooooooo....oooo",
"........oooooooo++++    ++++++++++++++++oooo++++oooooooo....oooo",
"........oooooooo++++    ++++++++++++++++oooo++++oooooooo....oooo",
"    oooooooo    ++++                        ++++oooo    oooo....",
"    oooooooo    ++++                        ++++oooo    oooo....",
"    oooooooo    ++++                        ++++oooo    oooo....",
"    oooooooo    ++++                        ++++oooo    oooo....",
"        oooo    ++++    ++++++++++++++++    ++++            oooo",
"        oooo    ++++    ++++++++++++++++    ++++            oooo",
"        oooo    ++++    ++++++++++++++++    ++++            oooo",
"        oooo    ++++    ++++++++++++++++    ++++            oooo",
"                OOOO                        OOOO            ....",
"                OOOO                        OOOO            ....",
"                OOOO                        OOOO            ....",
"                OOOO                        OOOO            ....",
"....            OOOO    OOOOOOOOOOOOOOOO    OOOO            ....",
"....            OOOO    OOOOOOOOOOOOOOOO    OOOO            ....",
"....            OOOO    OOOOOOOOOOOOOOOO    OOOO            ....",
"....            OOOO    OOOOOOOOOOOOOOOO    OOOO            ....",
"....oooo        XXXX                        XXXX        oooooooo",
"....oooo        XXXX                        XXXX        oooooooo",
"....oooo        XXXX                        XXXX        oooooooo",
"....oooo        XXXX                        XXXX        oooooooo",
"    ....ooooooooXXXX    XXXXXXXXXXXXXXXX    XXXXoooooooo........",
"    ....ooooooooXXXX    XXXXXXXXXXXXXXXX    XXXXoooooooo........",
"    ....ooooooooXXXX    XXXXXXXXXXXXXXXX    XXXXoooooooo........",
"    ....ooooooooXXXX    XXXXXXXXXXXXXXXX    XXXXoooooooo........",
"    ............oooooooooooooooooooooooooooooooo................",
"    ............oooooooooooooooooooooooooooooooo................",
"    ............oooooooooooooooooooooooooooooooo................",
"    ............oooooooooooooooooooooooooooooooo................",
"    ........................................................oooo",
"    ........................................................oooo",
"    ........................................................oooo",
"    ........................................................oooo",
"    ........................................................oooo",
"    ........................................................oooo",
"    ........................................................oooo",
"    ........................................................oooo",
"oooooooooooo........oooo....oooooooooooooooo....oooooooooooooooo",
"oooooooooooo........oooo....oooooooooooooooo....oooooooooooooooo",
"oooooooooooo........oooo....oooooooooooooooo....oooooooooooooooo",
"oooooooooooo........oooo....oooooooooooooooo....oooooooooooooooo"
};
