/* XPM */
static char *knight_f_run_anim_f0[] = {
/* columns rows colors chars-per-pixel */
"64 112 7 1 ",
"  c None",
". c #222222",
"X c #DC4A7B",
"o c #417089",
"O c #72D6CE",
"+ c #F78697",
"@ c #FDF7ED",
/* pixels */
"                                                                ",
"                                                                ",
"                                                                ",
"                                                                ",
"                                                                ",
"                                                                ",
"                                                                ",
"                                                                ",
"                                                                ",
"                                                                ",
"                                                                ",
"                                                                ",
"                                                                ",
"                                                                ",
"                                                                ",
"                                                                ",
"                                                                ",
"                                                                ",
"                                                                ",
"                                                                ",
"                                                                ",
"                                                                ",
"                                                                ",
"                                                                ",
"                                                                ",
"                                                                ",
"                                                                ",
"                                                                ",
"        ........................                                ",
"        ........................                                ",
"        ........................                                ",
"        ........................                                ",
"    ....XXXXXXXX++++++++++++++++....                            ",
"    ....XXXXXXXX++++++++++++++++....                            ",
"    ....XXXXXXXX++++++++++++++++....                            ",
"    ....XXXXXXXX++++++++++++++++....                            ",
"....XXXX........XXXXXXXX++++++++++++....                        ",
"....XXXX........XXXXXXXX++++++++++++....                        ",
"....XXXX........XXXXXXXX++++++++++++....                        ",
"....XXXX........XXXXXXXX++++++++++++....                        ",
"    ....        ....XXXXXXXX++++++++....                        ",
"    ....        ....XXXXXXXX++++++++....                        ",
"    ....        ....XXXXXXXX++++++++....                        ",
"    ....        ....XXXXXXXX++++++++....                        ",
"            ............XXXXXXXX....................            ",
"            ............XXXXXXXX....................            ",
"            ............XXXXXXXX....................            ",
"            ............XXXXXXXX....................            ",
"            ....OOOOOOOOOOOOOOOOOOOOOOOO@@@@@@@@....            ",
"            ....OOOOOOOOOOOOOOOOOOOOOOOO@@@@@@@@....            ",
"            ....OOOOOOOOOOOOOOOOOOOOOOOO@@@@@@@@....            ",
"            ....OOOOOOOOOOOOOOOOOOOOOOOO@@@@@@@@....            ",
"            ....OOOOOOOOoooooooooooooooooooooooo............    ",
"            ....OOOOOOOOoooooooooooooooooooooooo............    ",
"            ....OOOOOOOOoooooooooooooooooooooooo............    ",
"            ....OOOOOOOOoooooooooooooooooooooooo............    ",
"            ....OOOOOOOOooooOOOOOOOOOOOOOOOOOOOO@@@@@@@@....    ",
"            ....OOOOOOOOooooOOOOOOOOOOOOOOOOOOOO@@@@@@@@....    ",
"            ....OOOOOOOOooooOOOOOOOOOOOOOOOOOOOO@@@@@@@@....    ",
"            ....OOOOOOOOooooOOOOOOOOOOOOOOOOOOOO@@@@@@@@....    ",
"            ....OOOOOOOOooooOOOOooooOOOOooooOOOOoooo@@@@....    ",
"            ....OOOOOOOOooooOOOOooooOOOOooooOOOOoooo@@@@....    ",
"            ....OOOOOOOOooooOOOOooooOOOOooooOOOOoooo@@@@....    ",
"            ....OOOOOOOOooooOOOOooooOOOOooooOOOOoooo@@@@....    ",
"            ....OOOOOOOOooooOOOOooooOOOOooooOOOOoooo@@@@....    ",
"            ....OOOOOOOOooooOOOOooooOOOOooooOOOOoooo@@@@....    ",
"            ....OOOOOOOOooooOOOOooooOOOOooooOOOOoooo@@@@....    ",
"            ....OOOOOOOOooooOOOOooooOOOOooooOOOOoooo@@@@....    ",
"            ....OOOOOOOOooooOOOOooooOOOOooooOOOOoooo@@@@....    ",
"            ....OOOOOOOOooooOOOOooooOOOOooooOOOOoooo@@@@....    ",
"            ....OOOOOOOOooooOOOOooooOOOOooooOOOOoooo@@@@....    ",
"            ....OOOOOOOOooooOOOOooooOOOOooooOOOOoooo@@@@....    ",
"            ....OOOOOOOOooooOOOOOOOOOOOOOOOOOOOO@@@@@@@@....    ",
"            ....OOOOOOOOooooOOOOOOOOOOOOOOOOOOOO@@@@@@@@....    ",
"            ....OOOOOOOOooooOOOOOOOOOOOOOOOOOOOO@@@@@@@@....    ",
"            ....OOOOOOOOooooOOOOOOOOOOOOOOOOOOOO@@@@@@@@....    ",
"            ....OOOOOOOOoooooooooooooooooooooooo............    ",
"            ....OOOOOOOOoooooooooooooooooooooooo............    ",
"            ....OOOOOOOOoooooooooooooooooooooooo............    ",
"            ....OOOOOOOOoooooooooooooooooooooooo............    ",
"            ....OOOOOOOOOOOOOOOOOOOOOOOOOOOO@@@@....            ",
"            ....OOOOOOOOOOOOOOOOOOOOOOOOOOOO@@@@....            ",
"            ....OOOOOOOOOOOOOOOOOOOOOOOOOOOO@@@@....            ",
"            ....OOOOOOOOOOOOOOOOOOOOOOOOOOOO@@@@....            ",
"            ....ooooooooooooooooooooooooooooOOOO....            ",
"            ....ooooooooooooooooooooooooooooOOOO....            ",
"            ....ooooooooooooooooooooooooooooOOOO....            ",
"            ....ooooooooooooooooooooooooooooOOOO....            ",
"            ....OOOOOOOOOOOOOOOOOOOOOOOOOOOO@@@@....            ",
"            ....OOOOOOOOOOOOOOOOOOOOOOOOOOOO@@@@....            ",
"            ....OOOOOOOOOOOOOOOOOOOOOOOOOOOO@@@@....            ",
"            ....OOOOOOOOOOOOOOOOOOOOOOOOOOOO@@@@....            ",
"            ....OOOOOOOOOOOOOOOOOOOOOOOOOOOO@@@@....            ",
"            ....OOOOOOOOOOOOOOOOOOOOOOOOOOOO@@@@....            ",
"            ....OOOOOOOOOOOOOOOOOOOOOOOOOOOO@@@@....            ",
"            ....OOOOOOOOOOOOOOOOOOOOOOOOOOOO@@@@....            ",
"            ....oooooooo................oooooooo....            ",
"            ....oooooooo................oooooooo....            ",
"            ....oooooooo................oooooooo....            ",
"            ....oooooooo................oooooooo....            ",
"            ....oooo....                ............            ",
"            ....oooo....                ............            ",
"            ....oooo....                ............            ",
"            ....oooo....                ............            ",
"            ........                                            ",
"            ........                                            ",
"            ........                                            ",
"            ........                                            ",
"                                                                ",
"                                                                ",
"                                                                ",
"                                                                "
};
