/* XPM */
static char *masked_orc_run_anim_f3[] = {
/* columns rows colors chars-per-pixel */
"64 80 8 1 ",
"  c None",
". c #222222",
"X c #62232F",
"o c #314152",
"O c #3D734F",
"+ c #8F4029",
"@ c #D3BFA9",
"# c #FDF7ED",
/* pixels */
"                                                                ",
"                                                                ",
"                                                                ",
"                                                                ",
"                                                                ",
"                                                                ",
"                                                                ",
"                                                                ",
"                                                                ",
"                                                                ",
"                                                                ",
"                                                                ",
"                                                                ",
"                                                                ",
"                                                                ",
"                                                                ",
"                ........................................        ",
"                ........................................        ",
"                ........................................        ",
"                ........................................        ",
"                ....ooooOOOOOOOOOOOOOOOOOOOOOOOOOOOO....        ",
"                ....ooooOOOOOOOOOOOOOOOOOOOOOOOOOOOO....        ",
"                ....ooooOOOOOOOOOOOOOOOOOOOOOOOOOOOO....        ",
"                ....ooooOOOOOOOOOOOOOOOOOOOOOOOOOOOO....        ",
"                ....ooooOOOO................................    ",
"                ....ooooOOOO................................    ",
"                ....ooooOOOO................................    ",
"                ....ooooOOOO................................    ",
"                ....ooooOOOO....########################....    ",
"                ....ooooOOOO....########################....    ",
"                ....ooooOOOO....########################....    ",
"                ....ooooOOOO....########################....    ",
"            ....................####........########........    ",
"            ....................####........########........    ",
"            ....................####........########........    ",
"            ....................####........########........    ",
"            ....++++++++++++....####........########........    ",
"            ....++++++++++++....####........########........    ",
"            ....++++++++++++....####........########........    ",
"            ....++++++++++++....####........########........    ",
"            ....................####@@@@@@@@########@@@@....    ",
"            ....................####@@@@@@@@########@@@@....    ",
"            ....................####@@@@@@@@########@@@@....    ",
"            ....................####@@@@@@@@########@@@@....    ",
"                ....ooooOOOO............####........####....    ",
"                ....ooooOOOO............####........####....    ",
"                ....ooooOOOO............####........####....    ",
"                ....ooooOOOO............####........####....    ",
"                ....ooooOOOOOOOOOOOO........................    ",
"                ....ooooOOOOOOOOOOOO........................    ",
"                ....ooooOOOOOOOOOOOO........................    ",
"                ....ooooOOOOOOOOOOOO........................    ",
"                ....oooooooooooooooooooooooooooooooo....        ",
"                ....oooooooooooooooooooooooooooooooo....        ",
"                ....oooooooooooooooooooooooooooooooo....        ",
"                ....oooooooooooooooooooooooooooooooo....        ",
"                ....XXXXXXXXXXXXXXXXXXXXXXXXXXXXXXXX....        ",
"                ....XXXXXXXXXXXXXXXXXXXXXXXXXXXXXXXX....        ",
"                ....XXXXXXXXXXXXXXXXXXXXXXXXXXXXXXXX....        ",
"                ....XXXXXXXXXXXXXXXXXXXXXXXXXXXXXXXX....        ",
"                ....++++++++++++++++++++++++++++++++....        ",
"                ....++++++++++++++++++++++++++++++++....        ",
"                ....++++++++++++++++++++++++++++++++....        ",
"                ....++++++++++++++++++++++++++++++++....        ",
"                ....++++++++++++++++++++++++++++++++....        ",
"                ....++++++++++++++++++++++++++++++++....        ",
"                ....++++++++++++++++++++++++++++++++....        ",
"                ....++++++++++++++++++++++++++++++++....        ",
"                ................XXXXXXXX................        ",
"                ................XXXXXXXX................        ",
"                ................XXXXXXXX................        ",
"                ................XXXXXXXX................        ",
"                            ....XXXX....                        ",
"                            ....XXXX....                        ",
"                            ....XXXX....                        ",
"                            ....XXXX....                        ",
"                            ........                            ",
"                            ........                            ",
"                            ........                            ",
"                            ........                            "
};
