/* XPM */
static char *masked_orc_idle_anim_f1[] = {
/* columns rows colors chars-per-pixel */
"64 80 8 1 ",
"  c None",
". c #222222",
"X c #62232F",
"o c #314152",
"O c #3D734F",
"+ c #8F4029",
"@ c #D3BFA9",
"# c #FDF7ED",
/* pixels */
"                                                                ",
"                                                                ",
"                                                                ",
"                                                                ",
"                                                                ",
"                                                                ",
"                                                                ",
"                                                                ",
"                                                                ",
"                                                                ",
"                                                                ",
"                                                                ",
"                                                                ",
"                                                                ",
"                                                                ",
"                                                                ",
"                                                                ",
"                                                                ",
"                                                                ",
"                                                                ",
"                ........................................        ",
"                ........................................        ",
"                ........................................        ",
"                ........................................        ",
"                ....ooooOOOO................................    ",
"                ....ooooOOOO................................    ",
"                ....ooooOOOO................................    ",
"                ....ooooOOOO................................    ",
"                ....ooooOOOO....########################....    ",
"                ....ooooOOOO....########################....    ",
"                ....ooooOOOO....########################....    ",
"                ....ooooOOOO....########################....    ",
"                ....oooo........####........########........    ",
"                ....oooo........####........########........    ",
"                ....oooo........####........########........    ",
"                ....oooo........####........########........    ",
"            ............++++....####........########........    ",
"            ............++++....####........########........    ",
"            ............++++....####........########........    ",
"            ............++++....####........########........    ",
"            ....++++++++........####@@@@@@@@########@@@@....    ",
"            ....++++++++........####@@@@@@@@########@@@@....    ",
"            ....++++++++........####@@@@@@@@########@@@@....    ",
"            ....++++++++........####@@@@@@@@########@@@@....    ",
"            ............oooo............####........####....    ",
"            ............oooo............####........####....    ",
"            ............oooo............####........####....    ",
"            ............oooo............####........####....    ",
"                ....ooooOOOOOOOOOOOO........................    ",
"                ....ooooOOOOOOOOOOOO........................    ",
"                ....ooooOOOOOOOOOOOO........................    ",
"                ....ooooOOOOOOOOOOOO........................    ",
"                ....ooooOOOOOOOOOOOOOOOOOOOOOOOOoooo....        ",
"                ....ooooOOOOOOOOOOOOOOOOOOOOOOOOoooo....        ",
"                ....ooooOOOOOOOOOOOOOOOOOOOOOOOOoooo....        ",
"                ....ooooOOOOOOOOOOOOOOOOOOOOOOOOoooo....        ",
"                ....oooooooooooooooooooooooooooooooo....        ",
"                ....oooooooooooooooooooooooooooooooo....        ",
"                ....oooooooooooooooooooooooooooooooo....        ",
"                ....oooooooooooooooooooooooooooooooo....        ",
"                ....XXXXXXXXXXXXXXXXXXXXXXXXXXXXXXXX....        ",
"                ....XXXXXXXXXXXXXXXXXXXXXXXXXXXXXXXX....        ",
"                ....XXXXXXXXXXXXXXXXXXXXXXXXXXXXXXXX....        ",
"                ....XXXXXXXXXXXXXXXXXXXXXXXXXXXXXXXX....        ",
"                ....++++++++++++++++++++++++++++++++....        ",
"                ....++++++++++++++++++++++++++++++++....        ",
"                ....++++++++++++++++++++++++++++++++....        ",
"                ....++++++++++++++++++++++++++++++++....        ",
"                ....++++++++++++++++++++++++++++++++....        ",
"                ....++++++++++++++++++++++++++++++++....        ",
"                ....++++++++++++++++++++++++++++++++....        ",
"                ....++++++++++++++++++++++++++++++++....        ",
"                ....XXXXXXXX................XXXXXXXX....        ",
"                ....XXXXXXXX................XXXXXXXX....        ",
"                ....XXXXXXXX................XXXXXXXX....        ",
"                ....XXXXXXXX................XXXXXXXX....        ",
"                ............            ............            ",
"                ............            ............            ",
"                ............            ............            ",
"                ............            ............            "
};
