/* XPM */
static char *wall_hole_1[] = {
/* columns rows colors chars-per-pixel */
"64 64 3 1 ",
"  c #222222",
". c #483B3A",
"X c #775C55",
/* pixels */
"XXXXXXXX    XXXXXXXXXXXXXXXXXXXXXXXX    XXXXXXXXXXXX    XXXXXXXX",
"XXXXXXXX    XXXXXXXXXXXXXXXXXXXXXXXX    XXXXXXXXXXXX    XXXXXXXX",
"XXXXXXXX    XXXXXXXXXXXXXXXXXXXXXXXX    XXXXXXXXXXXX    XXXXXXXX",
"XXXXXXXX    XXXXXXXXXXXXXXXXXXXXXXXX    XXXXXXXXXXXX    XXXXXXXX",
"........    ........................    ............    ........",
"........    ........................    ............    ........",
"........    ........................    ............    ........",
"........    ........................    ............    ........",
"........    ........    ............    ........        ........",
"........    ........    ............    ........        ........",
"........    ........    ............    ........        ........",
"........    ........    ............    ........        ........",
"                                                                ",
"                                                                ",
"                                                                ",
"                                                                ",
"XXXX    XXXXXXXX                                XXXXXXXXXXXXXXXX",
"XXXX    XXXXXXXX                                XXXXXXXXXXXXXXXX",
"XXXX    XXXXXXXX                                XXXXXXXXXXXXXXXX",
"XXXX    XXXXXXXX                                XXXXXXXXXXXXXXXX",
"................                                ................",
"................                                ................",
"................                                ................",
"................                                ................",
"................                                ....    ........",
"................                                ....    ........",
"................                                ....    ........",
"................                                ....    ........",
"                                                                ",
"                                                                ",
"                                                                ",
"                                                                ",
"XXXXXXXXXXXXXXXXXXXXXXXXXXXX    XXXXXXXXXXXXXXXXXXXXXXXX        ",
"XXXXXXXXXXXXXXXXXXXXXXXXXXXX    XXXXXXXXXXXXXXXXXXXXXXXX        ",
"XXXXXXXXXXXXXXXXXXXXXXXXXXXX    XXXXXXXXXXXXXXXXXXXXXXXX        ",
"XXXXXXXXXXXXXXXXXXXXXXXXXXXX    XXXXXXXXXXXXXXXXXXXXXXXX        ",
"............................    ........................    ....",
"............................    ........................    ....",
"............................    ........................    ....",
"............................    ........................    ....",
"............    ............    ........................    ....",
"............    ............    ........................    ....",
"............    ............    ........................    ....",
"............    ............    ........................    ....",
"                                                                ",
"                                                                ",
"                                                                ",
"                                                                ",
"XXXXXXXX    XXXXXXXXXXXXXXXXXXXXXXXXXXXX    XXXXXXXXXXXXXXXXXXXX",
"XXXXXXXX    XXXXXXXXXXXXXXXXXXXXXXXXXXXX    XXXXXXXXXXXXXXXXXXXX",
"XXXXXXXX    XXXXXXXXXXXXXXXXXXXXXXXXXXXX    XXXXXXXXXXXXXXXXXXXX",
"XXXXXXXX    XXXXXXXXXXXXXXXXXXXXXXXXXXXX    XXXXXXXXXXXXXXXXXXXX",
"........    ............................    ....................",
"........    ............................    ....................",
"........    ............................    ....................",
"........    ............................    ....................",
"........    ....................    ....    ....    ............",
"........    ....................    ....    ....    ............",
"........    ....................    ....    ....    ............",
"........    ....................    ....    ....    ............",
"                                                                ",
"                                                                ",
"                                                                ",
"                                                                "
};
