/* XPM */
static char *wall_left[] = {
/* columns rows colors chars-per-pixel */
"64 64 3 1 ",
"  c #222222",
". c #483B3A",
"X c #775C55",
/* pixels */
"    XXXXXXXXXXXXXXXXXXXXXXXXXXXXXXXX    XXXXXXXXXXXX    XXXXXXXX",
"    XXXXXXXXXXXXXXXXXXXXXXXXXXXXXXXX    XXXXXXXXXXXX    XXXXXXXX",
"    XXXXXXXXXXXXXXXXXXXXXXXXXXXXXXXX    XXXXXXXXXXXX    XXXXXXXX",
"    XXXXXXXXXXXXXXXXXXXXXXXXXXXXXXXX    XXXXXXXXXXXX    XXXXXXXX",
"    ................................    ............    ........",
"    ................................    ............    ........",
"    ................................    ............    ........",
"    ................................    ............    ........",
"    ................    ............    ........        ........",
"    ................    ............    ........        ........",
"    ................    ............    ........        ........",
"    ................    ............    ........        ........",
"                                                                ",
"                                                                ",
"                                                                ",
"                                                                ",
"        XXXXXXXX    XXXXXXXXXXXXXXXXXXXXXXXX    XXXXXXXXXXXXXXXX",
"        XXXXXXXX    XXXXXXXXXXXXXXXXXXXXXXXX    XXXXXXXXXXXXXXXX",
"        XXXXXXXX    XXXXXXXXXXXXXXXXXXXXXXXX    XXXXXXXXXXXXXXXX",
"        XXXXXXXX    XXXXXXXXXXXXXXXXXXXXXXXX    XXXXXXXXXXXXXXXX",
"    ............    ........................    ................",
"    ............    ........................    ................",
"    ............    ........................    ................",
"    ............    ........................    ................",
"    ............    ........................    ....    ........",
"    ............    ........................    ....    ........",
"    ............    ........................    ....    ........",
"    ............    ........................    ....    ........",
"                                                                ",
"                                                                ",
"                                                                ",
"                                                                ",
"    XXXXXXXXXXXXXXXXXXXXXXXX    XXXXXXXXXXXXXXXXXXXXXXXX        ",
"    XXXXXXXXXXXXXXXXXXXXXXXX    XXXXXXXXXXXXXXXXXXXXXXXX        ",
"    XXXXXXXXXXXXXXXXXXXXXXXX    XXXXXXXXXXXXXXXXXXXXXXXX        ",
"    XXXXXXXXXXXXXXXXXXXXXXXX    XXXXXXXXXXXXXXXXXXXXXXXX        ",
"    ........................    ........................    ....",
"    ........................    ........................    ....",
"    ........................    ........................    ....",
"    ........................    ........................    ....",
"    ........    ............    ........................    ....",
"    ........    ............    ........................    ....",
"    ........    ............    ........................    ....",
"    ........    ............    ........................    ....",
"                                                                ",
"                                                                ",
"                                                                ",
"                                                                ",
"    XXXXXXXXXXXX    XXXXXXXXXXXXXXXXXXXX    XXXXXXXXXXXXXXXXXXXX",
"    XXXXXXXXXXXX    XXXXXXXXXXXXXXXXXXXX    XXXXXXXXXXXXXXXXXXXX",
"    XXXXXXXXXXXX    XXXXXXXXXXXXXXXXXXXX    XXXXXXXXXXXXXXXXXXXX",
"    XXXXXXXXXXXX    XXXXXXXXXXXXXXXXXXXX    XXXXXXXXXXXXXXXXXXXX",
"    ............    ....................    ....................",
"    ............    ....................    ....................",
"    ............    ....................    ....................",
"    ............    ....................    ....................",
"    ............    ............    ....    ....    ............",
"    ............    ............    ....    ....    ............",
"    ............    ............    ....    ....    ............",
"    ............    ............    ....    ....    ............",
"                                                                ",
"                                                                ",
"                                                                ",
"                                                                "
};
