/* XPM */
static char *wall_hole_2[] = {
/* columns rows colors chars-per-pixel */
"64 64 3 1 ",
"  c #222222",
". c #483B3A",
"X c #775C55",
/* pixels */
"XXXXXXXX    XXXXXXXXXXXXXXXXXXXXXXXX    XXXXXXXXXXXX    XXXXXXXX",
"XXXXXXXX    XXXXXXXXXXXXXXXXXXXXXXXX    XXXXXXXXXXXX    XXXXXXXX",
"XXXXXXXX    XXXXXXXXXXXXXXXXXXXXXXXX    XXXXXXXXXXXX    XXXXXXXX",
"XXXXXXXX    XXXXXXXXXXXXXXXXXXXXXXXX    XXXXXXXXXXXX    XXXXXXXX",
"........    ........................    ............    ........",
"........    ........................    ............    ........",
"........    ........................    ............    ........",
"........    ........................    ............    ........",
"........    ........    ............    ........        ........",
"........    ........    ............    ........        ........",
"........    ........    ............    ........        ........",
"........    ........    ............    ........        ........",
"                                                                ",
"                                                                ",
"                                                                ",
"                                                                ",
"XXXX    XXXXXXXX    XXXXXXXXXXXXXXXXXXXXXXXX    XXXXXXXXXXXXXXXX",
"XXXX    XXXXXXXX    XXXXXXXXXXXXXXXXXXXXXXXX    XXXXXXXXXXXXXXXX",
"XXXX    XXXXXXXX    XXXXXXXXXXXXXXXXXXXXXXXX    XXXXXXXXXXXXXXXX",
"XXXX    XXXXXXXX    XXXXXXXXXXXXXXXXXXXXXXXX    XXXXXXXXXXXXXXXX",
"................    ....................        ................",
"................    ....................        ................",
"................    ....................        ................",
"................    ....................        ................",
"................    ........    ....                    ........",
"................    ........    ....                    ........",
"................    ........    ....                    ........",
"................    ........    ....                    ........",
"                                                                ",
"                                                                ",
"                                                                ",
"                                                                ",
"XXXXXXXXXXXXXXXXXXXXXXXX                                        ",
"XXXXXXXXXXXXXXXXXXXXXXXX                                        ",
"XXXXXXXXXXXXXXXXXXXXXXXX                                        ",
"XXXXXXXXXXXXXXXXXXXXXXXX                                        ",
"............................                                ....",
"............................                                ....",
"............................                                ....",
"............................                                ....",
"............    ........                                        ",
"............    ........                                        ",
"............    ........                                        ",
"............    ........                                        ",
"                                                                ",
"                                                                ",
"                                                                ",
"                                                                ",
"XXXXXXXX    XXXXXXXXXXXXXXXXXXXXXXXXXXXX    XXXXXXXXXXXXXXXXXXXX",
"XXXXXXXX    XXXXXXXXXXXXXXXXXXXXXXXXXXXX    XXXXXXXXXXXXXXXXXXXX",
"XXXXXXXX    XXXXXXXXXXXXXXXXXXXXXXXXXXXX    XXXXXXXXXXXXXXXXXXXX",
"XXXXXXXX    XXXXXXXXXXXXXXXXXXXXXXXXXXXX    XXXXXXXXXXXXXXXXXXXX",
"........    ............................    ....................",
"........    ............................    ....................",
"........    ............................    ....................",
"........    ............................    ....................",
"........    ....................    ....    ....    ............",
"........    ....................    ....    ....    ............",
"........    ....................    ....    ....    ............",
"........    ....................    ....    ....    ............",
"                                                                ",
"                                                                ",
"                                                                ",
"                                                                "
};
