/* XPM */
static char *wall_right[] = {
/* columns rows colors chars-per-pixel */
"64 64 3 1 ",
"  c #222222",
". c #483B3A",
"X c #775C55",
/* pixels */
"XXXXXXXX    XXXXXXXXXXXXXXXXXXXXXXXX    XXXXXXXXXXXXXXXXXXXX    ",
"XXXXXXXX    XXXXXXXXXXXXXXXXXXXXXXXX    XXXXXXXXXXXXXXXXXXXX    ",
"XXXXXXXX    XXXXXXXXXXXXXXXXXXXXXXXX    XXXXXXXXXXXXXXXXXXXX    ",
"XXXXXXXX    XXXXXXXXXXXXXXXXXXXXXXXX    XXXXXXXXXXXXXXXXXXXX    ",
"........    ........................    ....................    ",
"........    ........................    ....................    ",
"........    ........................    ....................    ",
"........    ........................    ....................    ",
"........    ........    ............    ................        ",
"........    ........    ............    ................        ",
"........    ........    ............    ................        ",
"........    ........    ............    ................        ",
"                                                                ",
"                                                                ",
"                                                                ",
"                                                                ",
"XXXX    XXXXXXXX    XXXXXXXXXXXXXXXXXXXXXXXX    XXXXXXXXXXXX    ",
"XXXX    XXXXXXXX    XXXXXXXXXXXXXXXXXXXXXXXX    XXXXXXXXXXXX    ",
"XXXX    XXXXXXXX    XXXXXXXXXXXXXXXXXXXXXXXX    XXXXXXXXXXXX    ",
"XXXX    XXXXXXXX    XXXXXXXXXXXXXXXXXXXXXXXX    XXXXXXXXXXXX    ",
"................    ........................    ............    ",
"................    ........................    ............    ",
"................    ........................    ............    ",
"................    ........................    ............    ",
"................    ........................    ....    ....    ",
"................    ........................    ....    ....    ",
"................    ........................    ....    ....    ",
"................    ........................    ....    ....    ",
"                                                                ",
"                                                                ",
"                                                                ",
"                                                                ",
"XXXXXXXXXXXXXXXXXXXXXXXXXXXX    XXXXXXXXXXXXXXXXXXXXXXXX        ",
"XXXXXXXXXXXXXXXXXXXXXXXXXXXX    XXXXXXXXXXXXXXXXXXXXXXXX        ",
"XXXXXXXXXXXXXXXXXXXXXXXXXXXX    XXXXXXXXXXXXXXXXXXXXXXXX        ",
"XXXXXXXXXXXXXXXXXXXXXXXXXXXX    XXXXXXXXXXXXXXXXXXXXXXXX        ",
"............................    ........................        ",
"............................    ........................        ",
"............................    ........................        ",
"............................    ........................        ",
"............    ............    ........................        ",
"............    ............    ........................        ",
"............    ............    ........................        ",
"............    ............    ........................        ",
"                                                                ",
"                                                                ",
"                                                                ",
"                                                                ",
"XXXXXXXX    XXXXXXXXXXXXXXXXXXXXXXXXXXXX    XXXXXXXXXXXXXXXX    ",
"XXXXXXXX    XXXXXXXXXXXXXXXXXXXXXXXXXXXX    XXXXXXXXXXXXXXXX    ",
"XXXXXXXX    XXXXXXXXXXXXXXXXXXXXXXXXXXXX    XXXXXXXXXXXXXXXX    ",
"XXXXXXXX    XXXXXXXXXXXXXXXXXXXXXXXXXXXX    XXXXXXXXXXXXXXXX    ",
"........    ............................    ................    ",
"........    ............................    ................    ",
"........    ............................    ................    ",
"........    ............................    ................    ",
"........    ................    ........    ....    ........    ",
"........    ................    ........    ....    ........    ",
"........    ................    ........    ....    ........    ",
"........    ................    ........    ....    ........    ",
"                                                                ",
"                                                                ",
"                                                                ",
"                                                                "
};
